HIERARCHY
ROOT hip
{
  OFFSET -0.889122 71.6219 -13.0724
  CHANNELS 6 Xposition Yposition Zposition Zrotation Xrotation Yrotation
  JOINT abdomen
  {
    OFFSET 0 20.6881 -0.73152
    CHANNELS 3 Zrotation Xrotation Yrotation
    JOINT chest
    {
      OFFSET 0 11.7043 -0.48768
      CHANNELS 3 Zrotation Xrotation Yrotation
      JOINT neck
      {
        OFFSET 0 22.1894 -2.19456
        CHANNELS 3 Zrotation Xrotation Yrotation
        JOINT head
        {
          OFFSET -0.24384 7.07133 1.2192
          CHANNELS 3 Zrotation Xrotation Yrotation
          JOINT leftEye
          {
            OFFSET 4.14528 8.04674 8.04672
            CHANNELS 3 Zrotation Xrotation Yrotation
            End Site
            {
              OFFSET 1 0 0
            }
          }
          JOINT rightEye
          {
            OFFSET -3.6576 8.04674 8.04672
            CHANNELS 3 Zrotation Xrotation Yrotation
            End Site
            {
              OFFSET 1 0 0
            }
          }
        }
      }
      JOINT rCollar
      {
        OFFSET -2.68224 19.2634 -4.8768
        CHANNELS 3 Zrotation Xrotation Yrotation
        JOINT rShldr
        {
          OFFSET -8.77824 -1.95073 1.46304
          CHANNELS 3 Zrotation Xrotation Yrotation
          JOINT rForeArm
          {
            OFFSET -28.1742 -1.7115 0.48768
            CHANNELS 3 Zrotation Xrotation Yrotation
            JOINT rHand
            {
              OFFSET -22.5879 0.773209 7.07136
              CHANNELS 3 Zrotation Xrotation Yrotation
              JOINT rThumb1
              {
                OFFSET -1.2192 -0.487915 3.41376
                CHANNELS 3 Zrotation Xrotation Yrotation
                JOINT rThumb2
                {
                  OFFSET -3.37035 -0.52449 3.41376
                  CHANNELS 3 Zrotation Xrotation Yrotation
                  End Site
                  {
                    OFFSET -1.78271 -1.18214 1.43049
                  }
                }
              }
              JOINT rIndex1
              {
                OFFSET -7.75947 0.938293 5.60832
                CHANNELS 3 Zrotation Xrotation Yrotation
                JOINT rIndex2
                {
                  OFFSET -2.54057 -0.884171 1.56538
                  CHANNELS 3 Zrotation Xrotation Yrotation
                  End Site
                  {
                    OFFSET -1.62519 -0.234802 1.16502
                  }
                }
              }
              JOINT rMid1
              {
                OFFSET -8.24714 1.18213 3.41376
                CHANNELS 3 Zrotation Xrotation Yrotation
                JOINT rMid2
                {
                  OFFSET -3.10165 -0.590103 1.0647
                  CHANNELS 3 Zrotation Xrotation Yrotation
                  End Site
                  {
                    OFFSET -2.48547 -0.328903 0.83742
                  }
                }
              }
              JOINT rRing1
              {
                OFFSET -8.82822 0.546677 1.51678
                CHANNELS 3 Zrotation Xrotation Yrotation
                JOINT rRing2
                {
                  OFFSET -2.60934 -0.819778 -0.0198488
                  CHANNELS 3 Zrotation Xrotation Yrotation
                  End Site
                  {
                    OFFSET -2.33842 -0.294052 0.168128
                  }
                }
              }
              JOINT rPinky1
              {
                OFFSET -8.27202 -0.0477905 -0.4584
                CHANNELS 3 Zrotation Xrotation Yrotation
                JOINT rPinky2
                {
                  OFFSET -1.82734 -0.647385 -0.700984
                  CHANNELS 3 Zrotation Xrotation Yrotation
                  End Site
                  {
                    OFFSET -1.69225 -0.51767 -0.607171
                  }
                }
              }
            }
          }
        }
      }
      JOINT lCollar
      {
        OFFSET 2.68224 19.2634 -4.8768
        CHANNELS 3 Zrotation Xrotation Yrotation
        JOINT lShldr
        {
          OFFSET 8.77824 -1.95073 1.46304
          CHANNELS 3 Zrotation Xrotation Yrotation
          JOINT lForeArm
          {
            OFFSET 28.1742 -1.7115 0.48768
            CHANNELS 3 Zrotation Xrotation Yrotation
            JOINT lHand
            {
              OFFSET 22.5879 0.773209 7.07136
              CHANNELS 3 Zrotation Xrotation Yrotation
              JOINT lThumb1
              {
                OFFSET 1.2192 -0.487915 3.41376
                CHANNELS 3 Zrotation Xrotation Yrotation
                JOINT lThumb2
                {
                  OFFSET 3.37035 -0.52449 3.41376
                  CHANNELS 3 Zrotation Xrotation Yrotation
                  End Site
                  {
                    OFFSET 1.78271 -1.18214 1.43049
                  }
                }
              }
              JOINT lIndex1
              {
                OFFSET 7.75947 0.938293 5.60832
                CHANNELS 3 Zrotation Xrotation Yrotation
                JOINT lIndex2
                {
                  OFFSET 2.54057 -0.884171 1.56538
                  CHANNELS 3 Zrotation Xrotation Yrotation
                  End Site
                  {
                    OFFSET 1.62519 -0.234802 1.16502
                  }
                }
              }
              JOINT lMid1
              {
                OFFSET 8.24714 1.18213 3.41376
                CHANNELS 3 Zrotation Xrotation Yrotation
                JOINT lMid2
                {
                  OFFSET 3.10165 -0.590103 1.0647
                  CHANNELS 3 Zrotation Xrotation Yrotation
                  End Site
                  {
                    OFFSET 2.48547 -0.328903 0.83742
                  }
                }
              }
              JOINT lRing1
              {
                OFFSET 8.82822 0.546677 1.51678
                CHANNELS 3 Zrotation Xrotation Yrotation
                JOINT lRing2
                {
                  OFFSET 2.60934 -0.819778 -0.0198488
                  CHANNELS 3 Zrotation Xrotation Yrotation
                  End Site
                  {
                    OFFSET 2.33842 -0.294052 0.168128
                  }
                }
              }
              JOINT lPinky1
              {
                OFFSET 8.27202 -0.0477905 -0.4584
                CHANNELS 3 Zrotation Xrotation Yrotation
                JOINT lPinky2
                {
                  OFFSET 1.82734 -0.647385 -0.700984
                  CHANNELS 3 Zrotation Xrotation Yrotation
                  End Site
                  {
                    OFFSET 1.69225 -0.51767 -0.607171
                  }
                }
              }
            }
          }
        }
      }
    }
  }
  JOINT rButtock
  {
    OFFSET -8.77824 4.35084 1.2192
    CHANNELS 3 Zrotation Xrotation Yrotation
    JOINT rThigh
    {
      OFFSET 0 -1.70687 -2.19456
      CHANNELS 3 Zrotation Xrotation Yrotation
      JOINT rShin
      {
        OFFSET 0 -36.8199 0.73152
        CHANNELS 3 Zrotation Xrotation Yrotation
        JOINT rFoot
        {
          OFFSET 0.73152 -45.1104 -5.12064
          CHANNELS 3 Zrotation Xrotation Yrotation
          End Site
          {
            OFFSET -1.1221 -3.69964 12.103
          }
        }
      }
    }
  }
  JOINT lButtock
  {
    OFFSET 8.77824 4.35084 1.2192
    CHANNELS 3 Zrotation Xrotation Yrotation
    JOINT lThigh
    {
      OFFSET 0 -1.70687 -2.19456
      CHANNELS 3 Zrotation Xrotation Yrotation
      JOINT lShin
      {
        OFFSET 0 -36.8199 0.73152
        CHANNELS 3 Zrotation Xrotation Yrotation
        JOINT lFoot
        {
          OFFSET -0.73152 -45.1104 -5.12064
          CHANNELS 3 Zrotation Xrotation Yrotation
          End Site
          {
            OFFSET 1.1221 -3.69964 12.103
          }
        }
      }
    }
  }
}
MOTION
Frames:	8
Frame Time:	0.00833333
37.3608 83.9933 15.7058 1.297 0.00389259 -0.0244122 -1.70621 -0.00254501 -0.0464501 -0.47056 0.00242728 -0.0814846 -7.07313e-014 7.95139e-016 7.45441e-017 -2.12861e-013 9.54166e-015 3.43214e-016 -0 0 0 -0 0 0 -3.54859e-014 -6.75557e-017 1.49089e-016 -7.43276e-013 -1.84497e-015 -3.97569e-016 -1.28206e-011 3.794e-012 1.62208e-013 -1.46871e-010 -4.11094e-012 -6.67917e-014 -3.46416e-010 -6.82344e-013 2.25819e-013 -5.98253e-010 -1.17999e-012 3.90413e-013 -3.46409e-010 -6.82627e-013 2.22639e-013 7.73091 5.47488 0.417314 -3.46414e-010 -6.8203e-013 2.22639e-013 2.90554 0.965183 0.102902 -3.46404e-010 -6.81831e-013 2.22639e-013 10.2786 0.731801 0.0259123 -3.46417e-010 -6.81036e-013 2.25819e-013 2.22167 -0.733487 -0.20892 -3.55819e-014 -7.105e-017 0 -7.4725e-013 -1.34801e-015 -2.38542e-015 -1.28467e-011 -3.88127e-012 1.01778e-013 -1.46852e-010 3.58553e-012 -1.59028e-014 -3.46425e-010 -6.43699e-013 2.16278e-013 -5.98252e-010 -1.11319e-012 4.01545e-013 -3.46433e-010 -6.40882e-013 2.25819e-013 -7.73091 5.47488 -0.417314 -3.46426e-010 -6.43565e-013 2.22639e-013 -2.90554 0.965183 -0.102902 -3.46443e-010 -6.4277e-013 2.24229e-013 -10.2786 0.731801 -0.0259123 -3.46423e-010 -6.42472e-013 2.19458e-013 -2.22167 -0.733487 0.20892 -2.03217e-016 0 -3.88251e-019 -0.810696 -1.92439 -0.00361164 -0.00901471 -2.07859 -0.0743064 -0.483769 3.99775 0.136123 2.03217e-016 0 3.88251e-019 -1.78658 -6.8542 0.170485 -0.00323746 6.85136 -0.08638 0.513137 -0.00230403 -0.0582051 
34.8503 82.4311 13.594 4.55209 -2.12251 -18.68 -1.76042 0.0843679 -0.286307 0.51382 -0.0936563 -0.153034 -2.3012 -1.54381 0.418355 1.20839 1.5747 1.53084 -0 0 0 -0 0 0 1.45422e-014 4.62976e-013 -2.3968e-013 19.6554 4.01693 -1.95616 -5.87605 -3.11069 8.64862 0.0286134 3.75421 0.523538 3.63994e-010 7.79607e-011 -6.51562e-010 6.21717e-010 1.33439e-010 -1.13545e-009 3.63999e-010 7.7961e-011 -6.51566e-010 7.73091 5.47488 0.417314 3.63997e-010 7.79613e-011 -6.51564e-010 2.90554 0.965183 0.102902 3.64003e-010 7.79609e-011 -6.51564e-010 10.2786 0.731801 0.0259123 3.63992e-010 7.7962e-011 -6.5156e-010 2.22167 -0.733487 -0.20892 1.44662e-014 4.62971e-013 -2.39826e-013 -22.5932 5.96661 -0.309731 4.53478 -2.12723 -7.00898 -0.00855034 2.05135 -0.287631 3.39891e-010 -1.56185e-009 -1.91892e-010 5.87281e-010 -2.70741e-009 -3.36668e-010 3.39883e-010 -1.56185e-009 -1.91882e-010 -7.73091 5.47488 -0.417314 3.39891e-010 -1.56185e-009 -1.91888e-010 -2.90554 0.965183 -0.102902 3.39876e-010 -1.56185e-009 -1.91887e-010 -10.2786 0.731801 -0.0259123 3.39893e-010 -1.56185e-009 -1.91893e-010 -2.22167 -0.733487 0.20892 -2.03217e-016 0 -3.88251e-019 -0.792518 -6.55566 -0.416711 0.0101873 7.14268 0.0816692 -0.620922 -1.70384 -1.12506 2.03217e-016 0 3.88251e-019 -2.47539 -10.2083 0.402011 -0.00307789 13.8474 -0.190471 0.680462 -2.67847 1.26627 
34.8494 82.4353 13.5678 6.59982 -3.61926 -38.4658 -1.81766 0.179569 -0.540162 1.5573 -0.195374 -0.228779 -4.7128 -3.17742 0.861149 2.39534 3.24048 3.15322 -0 0 0 -0 0 0 6.67014e-014 9.58425e-013 -4.98897e-013 40.7298 8.2521 -4.05464 -11.0796 -6.16402 17.8739 -0.0163308 7.71444 1.08347 1.12443e-009 1.70952e-010 -1.36082e-009 1.92747e-009 2.92735e-010 -2.37132e-009 1.12444e-009 1.70953e-010 -1.36082e-009 7.73091 5.47488 0.417314 1.12444e-009 1.70953e-010 -1.36082e-009 2.90554 0.965183 0.102902 1.12444e-009 1.70952e-010 -1.36082e-009 10.2786 0.731801 0.0259123 1.12443e-009 1.70954e-010 -1.36081e-009 2.22167 -0.733487 -0.20892 6.66471e-014 9.5842e-013 -4.99036e-013 -46.4086 12.2781 -0.648143 8.76729 -4.26989 -14.4492 0.00486024 4.21952 -0.592894 1.07837e-009 -3.23067e-009 -3.71883e-010 1.8631e-009 -5.60032e-009 -6.53187e-010 1.07836e-009 -3.23066e-009 -3.71872e-010 -7.73091 5.47488 -0.417314 1.07837e-009 -3.23066e-009 -3.7188e-010 -2.90554 0.965183 -0.102902 1.07836e-009 -3.23067e-009 -3.71881e-010 -10.2786 0.731801 -0.0259123 1.07837e-009 -3.23066e-009 -3.71889e-010 -2.22167 -0.733487 0.20892 -2.03217e-016 0 -3.88251e-019 -0.851089 -11.4499 -0.880035 -0.0259483 16.8944 0.25627 -1.04061 -7.71608 -2.4807 2.03217e-016 0 3.88251e-019 -3.17373 -13.7516 0.658269 0.0268815 21.2463 -0.310952 0.991919 -5.50266 2.67225 
34.8522 82.4381 13.5297 7.63103 -3.7616 -56.1349 -1.86666 0.258174 -0.766028 2.48186 -0.285821 -0.296137 -6.83579 -4.63043 1.25872 3.3723 4.7106 4.60638 -0 0 0 -0 0 0 1.14598e-013 1.38906e-012 -7.19339e-013 59.803 11.994 -5.98517 -14.8923 -8.48316 26.2156 -0.123394 11.2588 1.59801 1.78481e-009 2.35247e-010 -1.95514e-009 3.06166e-009 4.02676e-010 -3.40714e-009 1.78482e-009 2.35248e-010 -1.95514e-009 7.73091 5.47488 0.417314 1.78482e-009 2.35248e-010 -1.95514e-009 2.90554 0.965183 0.102902 1.78482e-009 2.35246e-010 -1.95514e-009 10.2786 0.731801 0.0259123 1.78481e-009 2.35248e-010 -1.95513e-009 2.22167 -0.733487 -0.20892 1.14562e-013 1.38906e-012 -7.19478e-013 -67.5777 17.8977 -0.971161 12.0748 -6.00052 -21.1337 0.0364391 6.15342 -0.867336 1.71252e-009 -4.68426e-009 -5.76109e-010 2.95835e-009 -8.12e-009 -1.01081e-009 1.71251e-009 -4.68426e-009 -5.76097e-010 -7.73091 5.47488 -0.417314 1.71252e-009 -4.68425e-009 -5.76108e-010 -2.90554 0.965183 -0.102902 1.71251e-009 -4.68426e-009 -5.7611e-010 -10.2786 0.731801 -0.0259123 1.71253e-009 -4.68425e-009 -5.76119e-010 -2.22167 -0.733487 0.20892 -2.03217e-016 0 -3.88251e-019 -0.963478 -15.8149 -1.28332 -0.113842 25.5846 0.434196 -1.66203 -13.081 -3.74253 2.03217e-016 0 3.88251e-019 -3.76802 -16.9152 0.886774 0.0835072 27.839 -0.433446 1.38906 -8.01394 3.9497 
34.8569 82.4398 13.5056 8.22066 -3.02565 -68.3985 -1.89676 0.29531 -0.921912 3.10961 -0.348092 -0.342525 -8.28523 -5.63288 1.53974 4.00416 5.70457 5.62309 -0 0 0 -0 0 0 1.5184e-013 1.65767e-012 -8.42847e-013 73.2767 14.5566 -7.38439 -17.1273 -9.77817 32.0904 -0.238253 13.7672 1.97336 2.19503e-009 2.27798e-010 -2.26213e-009 3.76693e-009 3.89224e-010 -3.94287e-009 2.19503e-009 2.27799e-010 -2.26214e-009 7.73091 5.47488 0.417314 2.19504e-009 2.27799e-010 -2.26213e-009 2.90554 0.965183 0.102902 2.19503e-009 2.27797e-010 -2.26213e-009 10.2786 0.731801 0.0259123 2.19503e-009 2.27799e-010 -2.26212e-009 2.22167 -0.733487 -0.20892 1.51813e-013 1.65766e-012 -8.42996e-013 -82.2762 21.7897 -1.21582 14.1354 -7.06419 -25.8268 0.0695315 7.50224 -1.0605 2.08588e-009 -5.59981e-009 -8.40923e-010 3.60218e-009 -9.70664e-009 -1.47117e-009 2.08587e-009 -5.59981e-009 -8.4091e-010 -7.73091 5.47488 -0.417314 2.08588e-009 -5.5998e-009 -8.40923e-010 -2.90554 0.965183 -0.102902 2.08587e-009 -5.59981e-009 -8.40925e-010 -10.2786 0.731801 -0.0259123 2.08588e-009 -5.5998e-009 -8.40935e-010 -2.22167 -0.733487 0.20892 -2.03217e-016 0 -3.88251e-019 -1.04951 -18.8602 -1.49654 -0.212757 31.6217 0.579696 -2.24272 -16.8543 -4.6667 2.03217e-016 0 3.88251e-019 -4.16586 -19.1309 1.02729 0.142676 32.4168 -0.530935 1.73723 -9.75889 4.87317 
34.8536 82.4425 13.4837 8.50823 -2.52871 -73.1671 -1.8977 0.272708 -0.975569 3.31704 -0.371604 -0.358373 -8.81428 -5.9907 1.65359 4.23579 6.02142 6.01559 -0 0 0 -0 0 0 1.76756e-013 1.70736e-012 -8.29819e-013 78.641 15.5024 -7.96599 -17.9078 -10.1906 34.3789 -0.295915 14.8333 2.13619 2.29762e-009 1.12876e-010 -2.15723e-009 3.94546e-009 1.9095e-010 -3.76241e-009 2.29762e-009 1.12878e-010 -2.15723e-009 7.73091 5.47488 0.417314 2.29762e-009 1.12878e-010 -2.15723e-009 2.90554 0.965183 0.102902 2.29762e-009 1.12876e-010 -2.15722e-009 10.2786 0.731801 0.0259123 2.29762e-009 1.12879e-010 -2.15722e-009 2.22167 -0.733487 -0.20892 1.76724e-013 1.70734e-012 -8.30002e-013 -87.9863 23.2624 -1.31857 14.8916 -7.44329 -27.6739 0.0850239 8.03189 -1.13683 2.12403e-009 -5.76888e-009 -1.20497e-009 3.66569e-009 -9.99892e-009 -2.10045e-009 2.12402e-009 -5.76888e-009 -1.20495e-009 -7.73091 5.47488 -0.417314 2.12403e-009 -5.76887e-009 -1.20497e-009 -2.90554 0.965183 -0.102902 2.12403e-009 -5.76888e-009 -1.20497e-009 -10.2786 0.731801 -0.0259123 2.12404e-009 -5.76887e-009 -1.20498e-009 -2.22167 -0.733487 0.20892 -2.03217e-016 0 -3.88251e-019 -1.01451 -20.0548 -1.38891 -0.261029 33.9443 0.642947 -2.50156 -18.4383 -5.01595 2.03217e-016 0 3.88251e-019 -4.31742 -20.0165 1.02286 0.170338 34.173 -0.571858 1.89847 -10.4417 5.28222 
34.857 82.4431 13.4486 8.53894 -2.55592 -72.6218 -1.87804 0.207518 -0.95641 3.22453 -0.367399 -0.35246 -8.69083 -5.88896 1.64742 4.19914 5.85807 5.95993 -0 0 0 -0 0 0 1.92745e-013 1.60029e-012 -7.19305e-013 78.1464 15.3049 -7.94026 -17.8038 -10.1276 34.079 -0.295469 14.8697 2.14137 2.17844e-009 -7.84773e-011 -1.75857e-009 3.74422e-009 -1.38765e-010 -3.07114e-009 2.17844e-009 -7.84757e-011 -1.75858e-009 7.73091 5.47488 0.417314 2.17844e-009 -7.84744e-011 -1.75857e-009 2.90554 0.965183 0.102902 2.17845e-009 -7.8476e-011 -1.75857e-009 10.2786 0.731801 0.0259123 2.17844e-009 -7.8473e-011 -1.75856e-009 2.22167 -0.733487 -0.20892 1.92696e-013 1.60027e-012 -7.19538e-013 -87.2945 23.0076 -1.31075 14.8116 -7.40453 -27.4742 0.0833062 7.97656 -1.12884 1.92133e-009 -5.40443e-009 -1.6392e-009 3.31223e-009 -9.36609e-009 -2.84918e-009 1.92132e-009 -5.40443e-009 -1.63919e-009 -7.73091 5.47488 -0.417314 1.92133e-009 -5.40443e-009 -1.6392e-009 -2.90554 0.965183 -0.102902 1.92133e-009 -5.40443e-009 -1.6392e-009 -10.2786 0.731801 -0.0259123 1.92133e-009 -5.40442e-009 -1.63921e-009 -2.22167 -0.733487 0.20892 -2.03217e-016 0 -3.88251e-019 -0.882529 -19.9274 -1.04793 -0.254292 33.6138 0.634807 -2.46536 -18.464 -4.92729 2.03217e-016 0 3.88251e-019 -4.29878 -19.9523 0.912842 0.165923 33.9138 -0.565724 1.89705 -10.3694 5.31667 
34.8721 82.4396 13.4092 8.46673 -2.78216 -69.9476 -1.85549 0.128003 -0.914924 3.02006 -0.351013 -0.339737 -8.30443 -5.62657 1.59574 4.0491 5.53377 5.73154 -0 0 0 -0 0 0 2.01016e-013 1.41786e-012 -5.7112e-013 75.3007 14.6577 -7.66324 -17.3447 -9.87305 32.7462 -0.270482 14.4854 2.08179 1.90242e-009 -2.89152e-010 -1.25783e-009 3.27311e-009 -5.01739e-010 -2.20125e-009 1.90242e-009 -2.89151e-010 -1.25784e-009 7.73091 5.47488 0.417314 1.90242e-009 -2.89149e-010 -1.25783e-009 2.90554 0.965183 0.102902 1.90242e-009 -2.8915e-010 -1.25783e-009 10.2786 0.731801 0.0259123 1.90241e-009 -2.89146e-010 -1.25782e-009 2.22167 -0.733487 -0.20892 2.0095e-013 1.41783e-012 -5.71399e-013 -84.0442 22.0653 -1.26212 14.3967 -7.19813 -26.4546 0.0747177 7.688 -1.08723 1.57442e-009 -4.81571e-009 -2.07846e-009 2.70933e-009 -8.34414e-009 -3.60559e-009 1.57441e-009 -4.81571e-009 -2.07845e-009 -7.73091 5.47488 -0.417314 1.57442e-009 -4.81571e-009 -2.07846e-009 -2.90554 0.965183 -0.102902 1.57442e-009 -4.81571e-009 -2.07846e-009 -10.2786 0.731801 -0.0259123 1.57442e-009 -4.8157e-009 -2.07847e-009 -2.22167 -0.733487 0.20892 -2.03217e-016 0 -3.88251e-019 -0.736547 -19.2791 -0.660865 -0.225798 32.2234 0.598471 -2.31919 -17.837 -4.68806 2.03217e-016 0 3.88251e-019 -4.21119 -19.5138 0.778348 0.148883 32.8502 -0.540968 1.82819 -9.9962 5.19423 
